<svg width="145" height="38" viewBox="0 0 145 38" fill="none" xmlns="http://www.w3.org/2000/svg">
<path d="M62.5462 11.5995C63.1244 11.7647 63.5696 12.0584 63.8816 12.4806C64.1937 12.8937 64.3497 13.3985 64.3497 13.9951C64.3497 14.5366 64.2075 15.0093 63.9229 15.4131C63.6384 15.817 63.23 16.129 62.6976 16.3493C62.1744 16.5696 61.5549 16.6797 60.839 16.6797H55.9515V6.8772H60.7151C61.7431 6.8772 62.5599 7.10666 63.1657 7.56558C63.7715 8.0245 64.0744 8.64404 64.0744 9.42421C64.0744 9.92902 63.9413 10.3742 63.6751 10.7597C63.4089 11.1452 63.0326 11.4251 62.5462 11.5995ZM58.471 10.7184H60.2745C60.7518 10.7184 61.1006 10.6449 61.3208 10.4981C61.5411 10.3512 61.6513 10.1172 61.6513 9.79593C61.6513 9.46551 61.5365 9.22228 61.3071 9.06625C61.0868 8.91022 60.7426 8.8322 60.2745 8.8322H58.471V10.7184ZM60.5361 14.7247C61.0317 14.7247 61.3851 14.6467 61.5962 14.4907C61.8165 14.3347 61.9266 14.0731 61.9266 13.7059C61.9266 13.3296 61.8211 13.0635 61.61 12.9074C61.3989 12.7514 61.0409 12.6734 60.5361 12.6734H58.471V14.7247H60.5361ZM65.6184 6.8772H72.6124V8.85974H68.1379V10.7046H72.3233V12.6871H68.1379V14.6972H72.6124V16.6797H65.6184V6.8772ZM76.3588 8.96988H73.44V6.8772H81.8935V8.96988H78.9748V16.6797H76.3588V8.96988ZM88.2664 14.6559H83.9158L83.0485 16.6797H80.4601L85.0448 6.8772H87.0824L91.6808 16.6797H89.1338L88.2664 14.6559ZM87.4266 12.7147L86.0911 9.61695L84.7556 12.7147H87.4266ZM92.2391 6.8772H99.0816V8.90104H94.7861V10.6908H98.8063V12.7009H94.7861V16.6797H92.2391V6.8772ZM100.279 6.8772H102.868V14.5871H107.012V16.6797H100.279V6.8772ZM112.131 16.8037C110.699 16.8037 109.616 16.4457 108.882 15.7298C108.148 15.0047 107.78 13.9446 107.78 12.5495V6.8772H110.3V12.6458C110.3 13.3526 110.456 13.8941 110.768 14.2704C111.089 14.6467 111.544 14.8349 112.131 14.8349C112.709 14.8349 113.154 14.6467 113.467 14.2704C113.779 13.8849 113.935 13.3434 113.935 12.6458V6.8772H116.482V12.5495C116.482 13.9262 116.105 14.9817 115.353 15.716C114.609 16.4411 113.535 16.8037 112.131 16.8037ZM127.207 16.6797H124.192L122.003 13.6233L119.8 16.6797H116.799L120.53 11.7234L116.882 6.8772H119.869L121.989 9.851L124.151 6.8772H127.152L123.463 11.7234L127.207 16.6797Z" fill="#1563FF"/>
<path d="M60.7151 32.101C59.6963 32.101 58.806 31.8945 58.0442 31.4815C57.2916 31.0593 56.7087 30.4673 56.2957 29.7055C55.8919 28.9437 55.6899 28.0625 55.6899 27.0621C55.6899 26.0708 55.8919 25.1989 56.2957 24.4462C56.7087 23.6844 57.2916 23.097 58.0442 22.684C58.806 22.2618 59.6963 22.0507 60.7151 22.0507C61.3576 22.0507 61.9772 22.147 62.5738 22.3398C63.1795 22.5325 63.666 22.7941 64.0331 23.1245L63.2484 24.9556C62.4498 24.3774 61.6238 24.0883 60.7702 24.0883C59.9809 24.0883 59.3751 24.3407 58.9529 24.8455C58.5307 25.3411 58.3196 26.08 58.3196 27.0621C58.3196 28.0533 58.5307 28.8014 58.9529 29.3062C59.3751 29.811 59.9809 30.0634 60.7702 30.0634C61.6238 30.0634 62.4498 29.7743 63.2484 29.1961L64.0331 31.0272C63.666 31.3576 63.1795 31.6192 62.5738 31.8119C61.9772 32.0047 61.3576 32.101 60.7151 32.101ZM69.8285 32.101C68.8281 32.101 67.9561 31.8991 67.2127 31.4953C66.4692 31.0822 65.8956 30.4948 65.4917 29.733C65.0971 28.9712 64.8997 28.0809 64.8997 27.0621C64.8997 26.0433 65.1016 25.1576 65.5055 24.4049C65.9093 23.6523 66.4784 23.0741 67.2127 22.6702C67.9561 22.2572 68.8281 22.0507 69.8285 22.0507C70.829 22.0507 71.6963 22.2572 72.4306 22.6702C73.1741 23.0741 73.7431 23.6523 74.1378 24.4049C74.5325 25.1576 74.7298 26.0433 74.7298 27.0621C74.7298 28.0809 74.5325 28.9712 74.1378 29.733C73.7431 30.4948 73.1741 31.0822 72.4306 31.4953C71.6963 31.8991 70.829 32.101 69.8285 32.101ZM69.8285 30.1323C70.5628 30.1323 71.1365 29.8707 71.5495 29.3475C71.9717 28.8243 72.1828 28.0625 72.1828 27.0621C72.1828 26.0708 71.9717 25.3182 71.5495 24.8042C71.1365 24.281 70.5628 24.0194 69.8285 24.0194C69.0943 24.0194 68.5206 24.2764 68.1076 24.7904C67.6945 25.3044 67.488 26.0616 67.488 27.0621C67.488 28.0717 67.6945 28.8381 68.1076 29.3613C68.5206 29.8753 69.0943 30.1323 69.8285 30.1323ZM85.0096 22.1746V31.9771H83.0959L78.649 26.415V31.9771H76.24V22.1746H78.1258L82.5728 27.7092V22.1746H85.0096ZM90.3331 32.101C89.5988 32.101 88.8737 32.0047 88.1578 31.8119C87.4419 31.6192 86.8591 31.3576 86.4093 31.0272L87.2216 29.1961C87.6989 29.4989 88.2037 29.733 88.7361 29.8982C89.2776 30.0542 89.8191 30.1323 90.3607 30.1323C90.9114 30.1323 91.3336 30.0588 91.6273 29.912C91.921 29.7559 92.0678 29.5402 92.0678 29.2649C92.0678 29.0171 91.9347 28.8152 91.6686 28.6591C91.4024 28.4939 90.9022 28.3333 90.1679 28.1773C89.2409 27.9937 88.5204 27.7688 88.0064 27.5026C87.4924 27.2273 87.1298 26.906 86.9187 26.5389C86.7168 26.1718 86.6159 25.7266 86.6159 25.2034C86.6159 24.6068 86.7857 24.0699 87.1253 23.5926C87.4649 23.1062 87.9421 22.7299 88.5571 22.4637C89.172 22.1883 89.8742 22.0507 90.6635 22.0507C91.3703 22.0507 92.0541 22.1516 92.7149 22.3535C93.3849 22.5463 93.9081 22.8033 94.2844 23.1245L93.4859 24.9556C93.0545 24.6527 92.6002 24.4233 92.1229 24.2672C91.6456 24.102 91.1684 24.0194 90.6911 24.0194C90.223 24.0194 89.8467 24.1112 89.5621 24.2948C89.2776 24.4692 89.1353 24.7078 89.1353 25.0107C89.1353 25.1759 89.1858 25.3136 89.2868 25.4237C89.3877 25.5339 89.5759 25.644 89.8512 25.7542C90.1266 25.8551 90.5396 25.9653 91.0903 26.0846C91.9806 26.2773 92.6782 26.5114 93.183 26.7867C93.697 27.0529 94.0596 27.3696 94.2707 27.7367C94.4818 28.0946 94.5873 28.526 94.5873 29.0308C94.5873 29.9854 94.2156 30.738 93.4721 31.2887C92.7287 31.8303 91.6823 32.101 90.3331 32.101ZM100.34 32.101C98.9081 32.101 97.825 31.7431 97.0907 31.0272C96.3565 30.3021 95.9893 29.2419 95.9893 27.8468V22.1746H98.5088V27.9432C98.5088 28.6499 98.6648 29.1915 98.9769 29.5678C99.2981 29.9441 99.7525 30.1323 100.34 30.1323C100.918 30.1323 101.363 29.9441 101.675 29.5678C101.987 29.1823 102.143 28.6408 102.143 27.9432V22.1746H104.69V27.8468C104.69 29.2236 104.314 30.2791 103.562 31.0134C102.818 31.7385 101.744 32.101 100.34 32.101ZM106.384 22.1746H108.972V29.8844H113.116V31.9771H106.384V22.1746ZM114.825 24.2672H111.906V22.1746H120.36V24.2672H117.441V31.9771H114.825V24.2672ZM121.401 22.1746H123.99V31.9771H121.401V22.1746ZM134.528 22.1746V31.9771H132.614L128.167 26.415V31.9771H125.758V22.1746H127.644L132.091 27.7092V22.1746H134.528ZM145 26.4425V31.3576C144.477 31.5962 143.889 31.7798 143.238 31.9083C142.595 32.0368 141.934 32.101 141.255 32.101C140.19 32.101 139.263 31.8991 138.474 31.4953C137.694 31.0914 137.093 30.5132 136.67 29.7605C136.248 28.9987 136.037 28.0992 136.037 27.0621C136.037 26.0525 136.248 25.1713 136.67 24.4187C137.093 23.6569 137.689 23.0741 138.46 22.6702C139.231 22.2572 140.131 22.0507 141.159 22.0507C141.865 22.0507 142.531 22.1424 143.155 22.326C143.788 22.5096 144.302 22.762 144.697 23.0832L143.885 24.9143C143.435 24.6206 142.999 24.4095 142.577 24.281C142.164 24.1433 141.718 24.0745 141.241 24.0745C140.369 24.0745 139.718 24.3223 139.286 24.818C138.864 25.3044 138.653 26.0525 138.653 27.0621C138.653 28.1084 138.873 28.884 139.314 29.3888C139.763 29.8936 140.452 30.146 141.379 30.146C141.81 30.146 142.242 30.1001 142.673 30.0083V28.191H140.966V26.4425H145Z" fill="#111111"/>
<path d="M46.2744 1V37.3312" stroke="black" stroke-width="0.2" stroke-linecap="square"/>
<path d="M21.0928 14.8492C22.5863 13.3557 22.5863 10.9343 21.0928 9.44079C19.5993 7.94729 17.1779 7.94729 15.6844 9.44079L2.70415 22.421C1.21065 23.9145 1.21065 26.336 2.70415 27.8295C4.19765 29.323 6.61909 29.323 8.11259 27.8295L21.0928 14.8492Z" fill="#1563FF"/>
<path d="M28.3704 20.9681C29.8639 19.4746 29.8639 17.0532 28.3704 15.5597C26.8769 14.0662 24.4555 14.0662 22.962 15.5597L16.4719 22.0498C14.9784 23.5433 14.9784 25.9647 16.4719 27.4582C17.9654 28.9517 20.3868 28.9517 21.8803 27.4582L28.3704 20.9681Z" fill="#EE0279"/>
<path d="M34.1182 27.8519C35.6117 26.3584 35.6117 23.937 34.1182 22.4435C32.6247 20.95 30.2032 20.95 28.7097 22.4435C27.2162 23.937 27.2162 26.3584 28.7097 27.8519C30.2032 29.3454 32.6247 29.3454 34.1182 27.8519Z" fill="#1563FF"/>
</svg>
