<svg width="12" height="14" viewBox="0 0 12 14" fill="none" xmlns="http://www.w3.org/2000/svg">
<path d="M10 13.6663C9.44444 13.6663 8.97222 13.4719 8.58333 13.083C8.19444 12.6941 8 12.2219 8 11.6663C8 11.5886 8.00556 11.5079 8.01667 11.4243C8.02778 11.3408 8.04445 11.2659 8.06667 11.1997L3.36667 8.46634C3.17778 8.63301 2.96667 8.76367 2.73333 8.85834C2.5 8.95301 2.25556 9.00012 2 8.99967C1.44444 8.99967 0.972222 8.80523 0.583333 8.41634C0.194444 8.02745 0 7.55523 0 6.99967C0 6.44412 0.194444 5.9719 0.583333 5.58301C0.972222 5.19412 1.44444 4.99967 2 4.99967C2.25556 4.99967 2.5 5.04701 2.73333 5.14167C2.96667 5.23634 3.17778 5.36679 3.36667 5.53301L8.06667 2.79967C8.04445 2.73301 8.02778 2.65812 8.01667 2.57501C8.00556 2.4919 8 2.41123 8 2.33301C8 1.77745 8.19444 1.30523 8.58333 0.916341C8.97222 0.527452 9.44444 0.333008 10 0.333008C10.5556 0.333008 11.0278 0.527452 11.4167 0.916341C11.8056 1.30523 12 1.77745 12 2.33301C12 2.88856 11.8056 3.36079 11.4167 3.74967C11.0278 4.13856 10.5556 4.33301 10 4.33301C9.74444 4.33301 9.5 4.2859 9.26667 4.19167C9.03333 4.09745 8.82222 3.96679 8.63333 3.79967L3.93333 6.53301C3.95556 6.59967 3.97222 6.67479 3.98333 6.75834C3.99444 6.8419 4 6.92234 4 6.99967C4 7.07745 3.99444 7.15812 3.98333 7.24167C3.97222 7.32523 3.95556 7.40012 3.93333 7.46634L8.63333 10.1997C8.82222 10.033 9.03333 9.90256 9.26667 9.80834C9.5 9.71412 9.74444 9.66679 10 9.66634C10.5556 9.66634 11.0278 9.86079 11.4167 10.2497C11.8056 10.6386 12 11.1108 12 11.6663C12 12.2219 11.8056 12.6941 11.4167 13.083C11.0278 13.4719 10.5556 13.6663 10 13.6663ZM10 2.99967C10.1889 2.99967 10.3473 2.93567 10.4753 2.80767C10.6033 2.67967 10.6671 2.52145 10.6667 2.33301C10.6667 2.14412 10.6027 1.98567 10.4747 1.85767C10.3467 1.72967 10.1884 1.6659 10 1.66634C9.81111 1.66634 9.65267 1.73034 9.52467 1.85834C9.39667 1.98634 9.33289 2.14456 9.33333 2.33301C9.33333 2.5219 9.39733 2.68034 9.52533 2.80834C9.65333 2.93634 9.81156 3.00012 10 2.99967ZM2 7.66634C2.18889 7.66634 2.34733 7.60234 2.47533 7.47434C2.60333 7.34634 2.66711 7.18812 2.66667 6.99967C2.66667 6.81079 2.60267 6.65234 2.47467 6.52434C2.34667 6.39634 2.18844 6.33256 2 6.33301C1.81111 6.33301 1.65267 6.39701 1.52467 6.52501C1.39667 6.65301 1.33289 6.81123 1.33333 6.99967C1.33333 7.18856 1.39733 7.34701 1.52533 7.47501C1.65333 7.60301 1.81156 7.66679 2 7.66634ZM10 12.333C10.1889 12.333 10.3473 12.269 10.4753 12.141C10.6033 12.013 10.6671 11.8548 10.6667 11.6663C10.6667 11.4775 10.6027 11.319 10.4747 11.191C10.3467 11.063 10.1884 10.9992 10 10.9997C9.81111 10.9997 9.65267 11.0637 9.52467 11.1917C9.39667 11.3197 9.33289 11.4779 9.33333 11.6663C9.33333 11.8552 9.39733 12.0137 9.52533 12.1417C9.65333 12.2697 9.81156 12.3335 10 12.333Z" fill="#1B2054"/>
</svg>
